<svg width="35" height="55" viewBox="0 0 35 55" fill="none" xmlns="http://www.w3.org/2000/svg">
<path d="M6.305 7.885C6.845 7.885 7.265 8.26 7.565 9.01C6.275 12.43 5.63 16.885 5.63 22.375V27.28H5.72C7.4 25.6 9.995 20.41 13.505 11.71C14.405 10.57 15.095 10 15.575 10H15.755C16.265 10 16.67 10.285 16.97 10.855V11.71C16.13 12.22 14.075 16.465 10.805 24.445L7.115 29.98V30.07C10.505 33.58 14.03 35.335 17.69 35.335H19.4C20.51 35.335 21.26 35.23 21.65 35.02C22.46 35.35 22.865 35.83 22.865 36.46V36.82C22.865 37.57 21.56 37.945 18.95 37.945H18.275C13.985 37.945 9.89 36.175 5.99 32.635H5.72V37.855C5.72 38.875 5.255 39.385 4.325 39.385C3.485 39.385 3.065 38.875 3.065 37.855V32.5C1.955 31.66 1.4 30.76 1.4 29.8C1.4 28.99 1.91 28.585 2.93 28.585V22.195C2.93 16.375 3.68 11.755 5.18 8.335C5.57 8.035 5.945 7.885 6.305 7.885Z" fill="#1EC2CC"/>
</svg>
